<svg width="152" height="50" viewBox="0 0 152 50" fill="none" xmlns="http://www.w3.org/2000/svg">
<path d="M22.5863 6.27915L13.2233 23.6724C12.3226 25.3468 11.2334 26.6131 9.95572 27.4713C8.69894 28.3294 7.32697 28.7585 5.83978 28.7585C4.68774 28.7585 3.49381 28.5074 2.25798 28.005L3.48334 24.1433C4.36308 24.4154 5.09619 24.5515 5.68269 24.5515C6.31107 24.5515 6.87662 24.405 7.37933 24.1119C7.88204 23.798 8.34286 23.3166 8.76178 22.6677L8.9503 22.4166L0.278564 6.27915H5.71411L11.5581 18.084L17.5906 6.27915H22.5863Z" fill="#FFD100"/>
<path d="M33.5197 19.4026H30.0008V28.2562H24.9422V6.27915H30.0008V15.1642H33.6454L39.4265 6.27915H44.7993L37.6042 16.8909L45.0192 28.2562H39.238L33.5197 19.4026Z" fill="#FFD100"/>
<path d="M56.9237 6.27915C58.8717 6.27915 60.5578 6.60357 61.9822 7.25242C63.4275 7.90127 64.5376 8.82221 65.3126 10.0152C66.0876 11.2083 66.4751 12.6211 66.4751 14.2537C66.4751 15.8653 66.0876 17.2781 65.3126 18.4921C64.5376 19.6851 63.4275 20.6061 61.9822 21.2549C60.5578 21.8828 58.8717 22.1968 56.9237 22.1968H52.4935V28.2562H47.4036V6.27915H56.9237ZM56.6409 18.0526C58.17 18.0526 59.3325 17.7281 60.1284 17.0793C60.9244 16.4095 61.3224 15.4676 61.3224 14.2537C61.3224 13.0188 60.9244 12.0769 60.1284 11.4281C59.3325 10.7583 58.17 10.4234 56.6409 10.4234H52.4935V18.0526H56.6409Z" fill="#FFD100"/>
<path d="M83.621 23.5468H73.4097L71.4617 28.2562H66.2461L76.049 6.27915H81.076L90.9103 28.2562H85.569L83.621 23.5468ZM82.0186 19.6851L78.5311 11.2711L75.0435 19.6851H82.0186Z" fill="#FFD100"/>
<path d="M93.7012 6.27915H98.7911V28.2562H93.7012V6.27915ZM93.0728 4.33261C92.4444 4.33261 91.9208 4.13378 91.5019 3.7361C91.0829 3.31749 90.8735 2.79422 90.8735 2.16631C90.8735 1.53839 91.0829 1.02559 91.5019 0.627915C91.9208 0.209305 92.4444 0 93.0728 0C93.7012 0 94.2144 0.209305 94.6124 0.627915C95.0313 1.02559 95.2408 1.53839 95.2408 2.16631C95.2408 2.79422 95.0313 3.31749 94.6124 3.7361C94.2144 4.13378 93.7012 4.33261 93.0728 4.33261ZM99.4195 4.33261C98.7911 4.33261 98.2675 4.13378 97.8486 3.7361C97.4506 3.31749 97.2516 2.79422 97.2516 2.16631C97.2516 1.53839 97.4506 1.02559 97.8486 0.627915C98.2675 0.209305 98.7911 0 99.4195 0C100.048 0 100.572 0.209305 100.99 0.627915C101.409 1.02559 101.619 1.53839 101.619 2.16631C101.619 2.79422 101.409 3.31749 100.99 3.7361C100.572 4.13378 100.048 4.33261 99.4195 4.33261Z" fill="#FFD100"/>
<path d="M124.308 6.27915V28.2562H119.218V19.2456H109.226V28.2562H104.136V6.27915H109.226V14.9444H119.218V6.27915H124.308Z" fill="#FFD100"/>
<path d="M144.711 23.5468H134.499L132.551 28.2562H127.336L137.139 6.27915H142.166L152 28.2562H146.659L144.711 23.5468ZM143.108 19.6851L139.621 11.2711L136.133 19.6851H143.108Z" fill="#FFD100"/>
<path d="M4.5962 39.7381C5.50586 39.7381 6.29583 39.8912 6.96611 40.1974C7.63639 40.494 8.15346 40.9246 8.51733 41.4891C8.88119 42.044 9.06313 42.6995 9.06313 43.4553C9.06313 44.2112 8.88119 44.8667 8.51733 45.4216C8.15346 45.9766 7.63639 46.4071 6.96611 46.7133C6.29583 47.0099 5.50586 47.1583 4.5962 47.1583H2.8439V49.7847H0V39.7381H4.5962ZM4.42384 44.9193C5.00794 44.9193 5.44841 44.7949 5.74525 44.5461C6.04209 44.2878 6.1905 43.9242 6.1905 43.4553C6.1905 42.9865 6.04209 42.6229 5.74525 42.3646C5.44841 42.1062 5.00794 41.9771 4.42384 41.9771H2.8439V44.9193H4.42384Z" fill="#0082D1"/>
<path d="M16.784 47.8328H12.5325L11.7425 49.7847H8.84117L13.2794 39.7381H16.0802L20.5327 49.7847H17.5739L16.784 47.8328ZM15.9509 45.7374L14.6582 42.5224L13.3656 45.7374H15.9509Z" fill="#0082D1"/>
<path d="M27.9042 44.5605C28.4595 44.771 28.8952 45.0867 29.2112 45.5077C29.5272 45.9287 29.6852 46.4119 29.6852 46.9573C29.6852 47.5793 29.4745 48.1199 29.0532 48.5791C28.6319 49.0384 28.0622 49.3924 27.344 49.6412C26.6259 49.8804 25.8359 50 24.9741 50C24.2942 50 23.6 49.9187 22.8914 49.756C22.1924 49.5934 21.5222 49.3494 20.8806 49.0241L21.728 47.0434C22.1781 47.2731 22.6568 47.4501 23.1643 47.5745C23.6814 47.6893 24.1793 47.7467 24.6581 47.7467C25.2901 47.7467 25.8072 47.6462 26.2093 47.4453C26.6115 47.2348 26.8126 46.943 26.8126 46.5698C26.8126 46.2732 26.6881 46.0531 26.4391 45.9096C26.1902 45.7661 25.855 45.6943 25.4337 45.6943H22.8627V43.6132H25.2039C25.5869 43.6132 25.8838 43.5367 26.0944 43.3836C26.3051 43.2305 26.4104 43.0248 26.4104 42.7664C26.4104 42.4411 26.2476 42.1923 25.9221 42.0201C25.5965 41.8383 25.1752 41.7474 24.6581 41.7474C24.2368 41.7474 23.7915 41.8096 23.3223 41.934C22.8531 42.0488 22.4079 42.2163 21.9866 42.4363L21.1535 40.2835C22.2259 39.7668 23.4037 39.5085 24.6868 39.5085C25.5103 39.5085 26.2716 39.6281 26.9706 39.8673C27.6791 40.0969 28.2393 40.4318 28.651 40.8719C29.0724 41.3121 29.283 41.8335 29.283 42.4363C29.283 42.9052 29.1585 43.3262 28.9096 43.6993C28.6702 44.0629 28.3351 44.35 27.9042 44.5605Z" fill="#0082D1"/>
<path d="M36.1639 49.9857C35.101 49.9857 34.1434 49.7608 33.2912 49.3111C32.4486 48.8614 31.7831 48.2395 31.2948 47.4453C30.816 46.6511 30.5766 45.7565 30.5766 44.7614C30.5766 43.7663 30.816 42.8717 31.2948 42.0775C31.7831 41.2834 32.4486 40.6614 33.2912 40.2117C34.1434 39.762 35.101 39.5372 36.1639 39.5372C37.2267 39.5372 38.1795 39.762 39.0221 40.2117C39.8743 40.6614 40.5398 41.2834 41.0186 42.0775C41.5069 42.8717 41.7511 43.7663 41.7511 44.7614C41.7511 45.7565 41.5069 46.6511 41.0186 47.4453C40.5398 48.2395 39.8743 48.8614 39.0221 49.3111C38.1795 49.7608 37.2267 49.9857 36.1639 49.9857ZM36.1639 47.6319C36.6714 47.6319 37.131 47.5123 37.5427 47.2731C37.9545 47.0339 38.28 46.699 38.5194 46.2684C38.7588 45.8283 38.8785 45.3259 38.8785 44.7614C38.8785 44.1969 38.7588 43.6993 38.5194 43.2688C38.28 42.8286 37.9545 42.489 37.5427 42.2498C37.131 42.0105 36.6714 41.8909 36.1639 41.8909C35.6564 41.8909 35.1967 42.0105 34.785 42.2498C34.3733 42.489 34.0477 42.8286 33.8083 43.2688C33.5689 43.6993 33.4492 44.1969 33.4492 44.7614C33.4492 45.3259 33.5689 45.8283 33.8083 46.2684C34.0477 46.699 34.3733 47.0339 34.785 47.2731C35.1967 47.5123 35.6564 47.6319 36.1639 47.6319Z" fill="#0082D1"/>
<path d="M52.3348 49.7847L52.3205 44.46L49.7351 48.7944H48.4711L45.8858 44.5748V49.7847H43.2717V39.7381H45.6129L49.1462 45.5364L52.5934 39.7381H54.9345L54.9633 49.7847H52.3348Z" fill="#0082D1"/>
<path d="M70.7183 39.7381V49.7847H67.9031V41.9914H64.0825V49.7847H61.2817V39.7381H70.7183Z" fill="#0082D1"/>
<path d="M80.9396 47.5888V49.7847H72.8676V39.7381H80.7529V41.934H75.6827V43.6276H80.1497V45.7517H75.6827V47.5888H80.9396Z" fill="#0082D1"/>
<path d="M87.1561 39.7381C88.0657 39.7381 88.8557 39.8912 89.526 40.1974C90.1963 40.494 90.7133 40.9246 91.0772 41.4891C91.4411 42.044 91.623 42.6995 91.623 43.4553C91.623 44.2112 91.4411 44.8667 91.0772 45.4216C90.7133 45.9766 90.1963 46.4071 89.526 46.7133C88.8557 47.0099 88.0657 47.1583 87.1561 47.1583H85.4038V49.7847H82.5599V39.7381H87.1561ZM86.9837 44.9193C87.5678 44.9193 88.0083 44.7949 88.3051 44.5461C88.602 44.2878 88.7504 43.9242 88.7504 43.4553C88.7504 42.9865 88.602 42.6229 88.3051 42.3646C88.0083 42.1062 87.5678 41.9771 86.9837 41.9771H85.4038V44.9193H86.9837Z" fill="#0082D1"/>
<path d="M100.983 47.5888V49.7847H92.9114V39.7381H100.797V41.934H95.7266V43.6276H100.194V45.7517H95.7266V47.5888H100.983Z" fill="#0082D1"/>
<path d="M111.667 49.7847L111.652 44.46L109.067 48.7944H107.803L105.218 44.5748V49.7847H102.604V39.7381H104.945L108.478 45.5364L111.925 39.7381H114.267L114.295 49.7847H111.667Z" fill="#0082D1"/>
<path d="M121.375 49.9857C120.312 49.9857 119.354 49.7608 118.502 49.3111C117.659 48.8614 116.994 48.2395 116.506 47.4453C116.027 46.6511 115.787 45.7565 115.787 44.7614C115.787 43.7663 116.027 42.8717 116.506 42.0775C116.994 41.2834 117.659 40.6614 118.502 40.2117C119.354 39.762 120.312 39.5372 121.375 39.5372C122.438 39.5372 123.39 39.762 124.233 40.2117C125.085 40.6614 125.751 41.2834 126.229 42.0775C126.718 42.8717 126.962 43.7663 126.962 44.7614C126.962 45.7565 126.718 46.6511 126.229 47.4453C125.751 48.2395 125.085 48.8614 124.233 49.3111C123.39 49.7608 122.438 49.9857 121.375 49.9857ZM121.375 47.6319C121.882 47.6319 122.342 47.5123 122.754 47.2731C123.165 47.0339 123.491 46.699 123.73 46.2684C123.97 45.8283 124.089 45.3259 124.089 44.7614C124.089 44.1969 123.97 43.6993 123.73 43.2688C123.491 42.8286 123.165 42.489 122.754 42.2498C122.342 42.0105 121.882 41.8909 121.375 41.8909C120.867 41.8909 120.408 42.0105 119.996 42.2498C119.584 42.489 119.259 42.8286 119.019 43.2688C118.78 43.6993 118.66 44.1969 118.66 44.7614C118.66 45.3259 118.78 45.8283 119.019 46.2684C119.259 46.699 119.584 47.0339 119.996 47.2731C120.408 47.5123 120.867 47.6319 121.375 47.6319Z" fill="#0082D1"/>
<path d="M137.598 45.9383H136.405V49.7847H133.619V45.9383H132.427L130.459 49.7847H127.17L130.028 44.5174L127.342 39.7381H130.33L132.341 43.6419H133.619V39.7381H136.405V43.6419H137.626L139.68 39.7381H142.653L139.967 44.5174L142.826 49.7847H139.551L137.598 45.9383Z" fill="#0082D1"/>
<path d="M151.815 47.5888V49.7847H143.743V39.7381H151.629V41.934H146.559V43.6276H151.025V45.7517H146.559V47.5888H151.815Z" fill="#0082D1"/>
</svg>
